<svg xmlns="http://www.w3.org/2000/svg" xmlns:xlink="http://www.w3.org/1999/xlink" width="500" zoomAndPan="magnify" viewBox="0 0 375 374.999991" height="500" preserveAspectRatio="xMidYMid meet" version="1.0"><defs><g/></defs><g fill="#000000" fill-opacity="1"><g transform="translate(62.218765, 212.314072)"><g><path d="M 45.125 -12.15625 L 54.703125 -12.15625 L 54.703125 -49.84375 C 54.703125 -50.09375 54.453125 -50.40625 54 -50.40625 L 45.6875 -50.40625 C 45.4375 -50.40625 45.125 -50.21875 45 -50.03125 L 27.796875 -13.109375 L 9.703125 -50.03125 C 9.640625 -50.21875 9.265625 -50.40625 9.078125 -50.40625 L 0.625 -50.40625 C 0.1875 -50.40625 0 -50.09375 0 -49.84375 L 0 -0.5625 C 0 -0.3125 0.1875 0 0.625 0 L 8.953125 0 C 9.328125 0 9.640625 -0.3125 9.640625 -0.5625 L 9.640625 -28.859375 L 23.3125 -2.390625 C 23.375 -2.203125 23.75 -2.015625 23.953125 -2.015625 L 31.703125 -2.015625 C 31.890625 -2.015625 32.203125 -2.203125 32.265625 -2.390625 L 45.125 -28.171875 Z M 45.125 -12.15625 "/></g></g></g><g fill="#000000" fill-opacity="1"><g transform="translate(126.609237, 212.314072)"><g><path d="M 39.578125 -0.75 L 20.421875 -50.03125 C 20.234375 -50.53125 19.34375 -50.53125 19.15625 -50.03125 L 0.0625 -0.75 C -0.125 -0.375 0.125 0 0.6875 0 L 9.328125 0 C 9.578125 0 9.890625 -0.125 9.953125 -0.375 L 19.78125 -28.484375 L 29.75 -0.375 C 29.8125 -0.125 30.125 0 30.3125 0 L 39 0 C 39.453125 0 39.765625 -0.375 39.578125 -0.75 Z M 39.578125 -0.75 "/></g></g></g><g fill="#000000" fill-opacity="1"><g transform="translate(175.122902, 212.314072)"><g><path d="M 34.40625 -0.8125 C 31.25 -7.8125 27.859375 -14.75 24.703125 -21.859375 C 29.75 -23.6875 33.96875 -27.734375 33.96875 -35.421875 C 33.96875 -50.28125 19.78125 -50.40625 16.953125 -50.40625 L 0.625 -50.40625 C 0.3125 -50.40625 0 -50.09375 0 -49.84375 L 0 -41.28125 L 16.953125 -41.28125 C 18.46875 -41.28125 24.390625 -40.953125 24.390625 -35.421875 C 24.390625 -29.875 19.03125 -29.625 16.953125 -29.625 L 0 -29.625 L 0 -0.5625 C 0 -0.3125 0.3125 0 0.625 0 L 8.890625 0 C 9.265625 0 9.578125 -0.3125 9.578125 -0.5625 L 9.578125 -20.359375 L 15 -20.359375 L 24.203125 -0.375 C 24.265625 -0.1875 24.640625 0 24.828125 0 L 33.84375 0 C 34.34375 0 34.59375 -0.375 34.40625 -0.8125 Z M 34.40625 -0.8125 "/></g></g></g><g fill="#000000" fill-opacity="1"><g transform="translate(218.281286, 212.314072)"><g><path d="M 23.125 -27.984375 C 19.53125 -29.6875 16 -29.6875 15.6875 -29.6875 C 12.484375 -29.6875 9.390625 -31.578125 9.390625 -35.21875 C 9.390625 -39.265625 12.21875 -41.34375 15.6875 -41.34375 C 18.96875 -41.34375 21.734375 -39.640625 21.859375 -36.046875 C 21.859375 -35.859375 22.1875 -35.546875 22.5625 -35.546875 L 30.4375 -35.546875 C 30.875 -35.546875 31.1875 -35.859375 31.125 -36.046875 C 31 -44.609375 24.328125 -50.40625 15.6875 -50.40625 C 7.625 -50.40625 0 -44.671875 0 -35.21875 C 0 -29.359375 2.96875 -24.890625 8.1875 -22.5 C 11.84375 -20.796875 15.25 -20.796875 15.6875 -20.796875 C 18.53125 -20.671875 22 -18.40625 22 -14.6875 C 22 -11.34375 19.03125 -9.078125 15.6875 -9.078125 C 15.6875 -9.078125 15.6875 -9.078125 15.625 -9.078125 L 15.625 0 C 15.6875 0 15.6875 0 15.6875 0 C 23.75 0 31.3125 -5.234375 31.3125 -14.6875 C 31.3125 -20.609375 28.421875 -25.515625 23.125 -27.984375 Z M 23.125 -27.984375 "/></g></g></g><g fill="#000000" fill-opacity="1"><g transform="translate(258.100518, 212.314072)"><g><path d="M 20.546875 -8.640625 L 15.5 -8.640625 L 15.5 -50.40625 L 5.859375 -50.40625 L 5.859375 -8.640625 L 0.6875 -8.640625 C 0.3125 -8.640625 0 -8.375 0 -8.0625 L 0 -0.5625 C 0 -0.3125 0.3125 0 0.6875 0 L 20.546875 0 C 20.984375 0 21.234375 -0.3125 21.234375 -0.5625 L 21.234375 -8.0625 C 21.234375 -8.375 20.984375 -8.640625 20.546875 -8.640625 Z M 20.546875 -8.640625 "/></g></g></g><g fill="#000000" fill-opacity="1"><g transform="translate(287.335222, 212.314072)"><g><path d="M 23.953125 -9.390625 L 9.640625 -9.390625 L 9.640625 -20.734375 L 29.421875 -20.734375 C 29.8125 -20.734375 30.125 -21.046875 30.125 -21.296875 L 30.125 -29.296875 C 30.125 -29.625 29.8125 -29.875 29.421875 -29.875 L 9.640625 -29.875 L 9.640625 -41.28125 L 23.953125 -41.28125 L 23.953125 -50.40625 L 0.6875 -50.40625 C 0.3125 -50.40625 0 -50.09375 0 -49.84375 L 0 -0.5625 C 0 -0.3125 0.3125 0 0.6875 0 L 23.953125 0 Z M 23.953125 -9.390625 "/></g></g></g><path stroke-linecap="butt" transform="matrix(-0.900047, 0, 0, -0.900047, 337.490608, 132.93632)" fill="none" stroke-linejoin="miter" d="M -0.00175498 4.99843 L 84.43398 4.99843 " stroke="#000000" stroke-width="10" stroke-opacity="1" stroke-miterlimit="4"/><path stroke-linecap="butt" transform="matrix(0, -0.900047, 0.900047, 0, 328.494768, 200.852272)" fill="none" stroke-linejoin="miter" d="M 0.00078786 5.001215 L 82.461798 5.001215 " stroke="#000000" stroke-width="10" stroke-opacity="1" stroke-miterlimit="4"/><path stroke-linecap="butt" transform="matrix(0.900047, 0, 0, 0.900047, 37.500002, 242.052786)" fill="none" stroke-linejoin="miter" d="M -0.00000226377 5.001854 L 84.431392 5.001854 " stroke="#000000" stroke-width="10" stroke-opacity="1" stroke-miterlimit="4"/><path stroke-linecap="butt" transform="matrix(0, 0.900047, -0.900047, 0, 46.495852, 174.136834)" fill="none" stroke-linejoin="miter" d="M -0.000128232 4.999473 L 82.465222 4.999473 " stroke="#000000" stroke-width="10" stroke-opacity="1" stroke-miterlimit="4"/><g fill="#000000" fill-opacity="1"><g transform="translate(198.365235, 244.692928)"><g><path d="M 2.375 0 L 2.375 -18.84375 L 6.359375 -18.84375 L 6.359375 0 Z M 2.375 0 "/></g></g></g><g fill="#000000" fill-opacity="1"><g transform="translate(207.10398, 244.692928)"><g><path d="M 15.359375 0 L 11.4375 0 L 11.4375 -8.421875 C 11.4375 -9.453125 11.25 -10.226562 10.875 -10.75 C 10.507812 -11.269531 9.921875 -11.53125 9.109375 -11.53125 C 8.015625 -11.53125 7.21875 -11.160156 6.71875 -10.421875 C 6.226562 -9.691406 5.984375 -8.476562 5.984375 -6.78125 L 5.984375 0 L 2.0625 0 L 2.0625 -14.40625 L 5.0625 -14.40625 L 5.59375 -12.5625 L 5.8125 -12.5625 C 6.25 -13.257812 6.851562 -13.785156 7.625 -14.140625 C 8.394531 -14.492188 9.269531 -14.671875 10.25 -14.671875 C 11.914062 -14.671875 13.179688 -14.21875 14.046875 -13.3125 C 14.921875 -12.40625 15.359375 -11.097656 15.359375 -9.390625 Z M 15.359375 0 "/></g></g></g><g fill="#000000" fill-opacity="1"><g transform="translate(224.452578, 244.692928)"><g><path d="M 14.59375 -14.40625 L 14.59375 -12.40625 L 12.34375 -11.828125 C 12.757812 -11.179688 12.96875 -10.460938 12.96875 -9.671875 C 12.96875 -8.117188 12.425781 -6.910156 11.34375 -6.046875 C 10.269531 -5.179688 8.773438 -4.75 6.859375 -4.75 L 6.140625 -4.796875 L 5.5625 -4.859375 C 5.164062 -4.546875 4.96875 -4.203125 4.96875 -3.828125 C 4.96875 -3.265625 5.6875 -2.984375 7.125 -2.984375 L 9.578125 -2.984375 C 11.160156 -2.984375 12.363281 -2.640625 13.1875 -1.953125 C 14.019531 -1.273438 14.4375 -0.28125 14.4375 1.03125 C 14.4375 2.71875 13.734375 4.023438 12.328125 4.953125 C 10.921875 5.878906 8.90625 6.34375 6.28125 6.34375 C 4.269531 6.34375 2.734375 5.988281 1.671875 5.28125 C 0.609375 4.582031 0.078125 3.601562 0.078125 2.34375 C 0.078125 1.476562 0.347656 0.753906 0.890625 0.171875 C 1.429688 -0.410156 2.222656 -0.828125 3.265625 -1.078125 C 2.867188 -1.253906 2.519531 -1.535156 2.21875 -1.921875 C 1.914062 -2.316406 1.765625 -2.734375 1.765625 -3.171875 C 1.765625 -3.722656 1.921875 -4.179688 2.234375 -4.546875 C 2.554688 -4.910156 3.019531 -5.269531 3.625 -5.625 C 2.863281 -5.945312 2.257812 -6.46875 1.8125 -7.1875 C 1.375 -7.90625 1.15625 -8.753906 1.15625 -9.734375 C 1.15625 -11.304688 1.664062 -12.519531 2.6875 -13.375 C 3.71875 -14.238281 5.179688 -14.671875 7.078125 -14.671875 C 7.484375 -14.671875 7.960938 -14.632812 8.515625 -14.5625 C 9.066406 -14.488281 9.421875 -14.4375 9.578125 -14.40625 Z M 3.484375 2.03125 C 3.484375 2.570312 3.738281 3 4.25 3.3125 C 4.769531 3.625 5.5 3.78125 6.4375 3.78125 C 7.851562 3.78125 8.957031 3.582031 9.75 3.1875 C 10.550781 2.800781 10.953125 2.273438 10.953125 1.609375 C 10.953125 1.066406 10.710938 0.691406 10.234375 0.484375 C 9.765625 0.285156 9.035156 0.1875 8.046875 0.1875 L 6.015625 0.1875 C 5.296875 0.1875 4.691406 0.351562 4.203125 0.6875 C 3.722656 1.03125 3.484375 1.476562 3.484375 2.03125 Z M 4.90625 -9.6875 C 4.90625 -8.90625 5.082031 -8.285156 5.4375 -7.828125 C 5.800781 -7.378906 6.347656 -7.15625 7.078125 -7.15625 C 7.816406 -7.15625 8.359375 -7.378906 8.703125 -7.828125 C 9.046875 -8.285156 9.21875 -8.90625 9.21875 -9.6875 C 9.21875 -11.425781 8.503906 -12.296875 7.078125 -12.296875 C 5.628906 -12.296875 4.90625 -11.425781 4.90625 -9.6875 Z M 4.90625 -9.6875 "/></g></g></g><g fill="#000000" fill-opacity="1"><g transform="translate(239.365162, 244.692928)"><g><path d="M 8.03125 -11.875 C 7.195312 -11.875 6.539062 -11.609375 6.0625 -11.078125 C 5.59375 -10.554688 5.320312 -9.8125 5.25 -8.84375 L 10.765625 -8.84375 C 10.753906 -9.8125 10.503906 -10.554688 10.015625 -11.078125 C 9.523438 -11.609375 8.863281 -11.875 8.03125 -11.875 Z M 8.578125 0.25 C 6.265625 0.25 4.453125 -0.382812 3.140625 -1.65625 C 1.835938 -2.9375 1.1875 -4.75 1.1875 -7.09375 C 1.1875 -9.507812 1.789062 -11.375 3 -12.6875 C 4.207031 -14.007812 5.875 -14.671875 8 -14.671875 C 10.039062 -14.671875 11.625 -14.09375 12.75 -12.9375 C 13.882812 -11.78125 14.453125 -10.175781 14.453125 -8.125 L 14.453125 -6.21875 L 5.171875 -6.21875 C 5.210938 -5.101562 5.539062 -4.234375 6.15625 -3.609375 C 6.78125 -2.984375 7.648438 -2.671875 8.765625 -2.671875 C 9.628906 -2.671875 10.445312 -2.757812 11.21875 -2.9375 C 12 -3.113281 12.804688 -3.398438 13.640625 -3.796875 L 13.640625 -0.765625 C 12.953125 -0.421875 12.21875 -0.164062 11.4375 0 C 10.65625 0.164062 9.703125 0.25 8.578125 0.25 Z M 8.578125 0.25 "/></g></g></g><g fill="#000000" fill-opacity="1"><g transform="translate(254.960855, 244.692928)"><g><path d="M 15.359375 0 L 11.4375 0 L 11.4375 -8.421875 C 11.4375 -9.453125 11.25 -10.226562 10.875 -10.75 C 10.507812 -11.269531 9.921875 -11.53125 9.109375 -11.53125 C 8.015625 -11.53125 7.21875 -11.160156 6.71875 -10.421875 C 6.226562 -9.691406 5.984375 -8.476562 5.984375 -6.78125 L 5.984375 0 L 2.0625 0 L 2.0625 -14.40625 L 5.0625 -14.40625 L 5.59375 -12.5625 L 5.8125 -12.5625 C 6.25 -13.257812 6.851562 -13.785156 7.625 -14.140625 C 8.394531 -14.492188 9.269531 -14.671875 10.25 -14.671875 C 11.914062 -14.671875 13.179688 -14.21875 14.046875 -13.3125 C 14.921875 -12.40625 15.359375 -11.097656 15.359375 -9.390625 Z M 15.359375 0 "/></g></g></g><g fill="#000000" fill-opacity="1"><g transform="translate(272.309454, 244.692928)"><g><path d="M 1.890625 -18.125 C 1.890625 -19.40625 2.601562 -20.046875 4.03125 -20.046875 C 5.457031 -20.046875 6.171875 -19.40625 6.171875 -18.125 C 6.171875 -17.519531 5.992188 -17.046875 5.640625 -16.703125 C 5.285156 -16.367188 4.75 -16.203125 4.03125 -16.203125 C 2.601562 -16.203125 1.890625 -16.84375 1.890625 -18.125 Z M 5.984375 0 L 2.0625 0 L 2.0625 -14.40625 L 5.984375 -14.40625 Z M 5.984375 0 "/></g></g></g><g fill="#000000" fill-opacity="1"><g transform="translate(280.365088, 244.692928)"><g><path d="M 8.03125 -11.875 C 7.195312 -11.875 6.539062 -11.609375 6.0625 -11.078125 C 5.59375 -10.554688 5.320312 -9.8125 5.25 -8.84375 L 10.765625 -8.84375 C 10.753906 -9.8125 10.503906 -10.554688 10.015625 -11.078125 C 9.523438 -11.609375 8.863281 -11.875 8.03125 -11.875 Z M 8.578125 0.25 C 6.265625 0.25 4.453125 -0.382812 3.140625 -1.65625 C 1.835938 -2.9375 1.1875 -4.75 1.1875 -7.09375 C 1.1875 -9.507812 1.789062 -11.375 3 -12.6875 C 4.207031 -14.007812 5.875 -14.671875 8 -14.671875 C 10.039062 -14.671875 11.625 -14.09375 12.75 -12.9375 C 13.882812 -11.78125 14.453125 -10.175781 14.453125 -8.125 L 14.453125 -6.21875 L 5.171875 -6.21875 C 5.210938 -5.101562 5.539062 -4.234375 6.15625 -3.609375 C 6.78125 -2.984375 7.648438 -2.671875 8.765625 -2.671875 C 9.628906 -2.671875 10.445312 -2.757812 11.21875 -2.9375 C 12 -3.113281 12.804688 -3.398438 13.640625 -3.796875 L 13.640625 -0.765625 C 12.953125 -0.421875 12.21875 -0.164062 11.4375 0 C 10.65625 0.164062 9.703125 0.25 8.578125 0.25 Z M 8.578125 0.25 "/></g></g></g><g fill="#000000" fill-opacity="1"><g transform="translate(295.960781, 244.692928)"><g><path d="M 10.109375 -14.671875 C 10.640625 -14.671875 11.082031 -14.632812 11.4375 -14.5625 L 11.140625 -10.875 C 10.816406 -10.957031 10.425781 -11 9.96875 -11 C 8.71875 -11 7.738281 -10.675781 7.03125 -10.03125 C 6.332031 -9.394531 5.984375 -8.492188 5.984375 -7.328125 L 5.984375 0 L 2.0625 0 L 2.0625 -14.40625 L 5.03125 -14.40625 L 5.625 -11.984375 L 5.8125 -11.984375 C 6.257812 -12.796875 6.863281 -13.445312 7.625 -13.9375 C 8.382812 -14.425781 9.210938 -14.671875 10.109375 -14.671875 Z M 10.109375 -14.671875 "/></g></g></g><g fill="#000000" fill-opacity="1"><g transform="translate(307.947554, 244.692928)"><g><path d="M 5.984375 0 L 2.0625 0 L 2.0625 -14.40625 L 5.984375 -14.40625 Z M 1.875 -15.984375 L 1.875 -16.34375 C 3.351562 -18.0625 4.363281 -19.351562 4.90625 -20.21875 L 9.3125 -20.21875 L 9.3125 -19.953125 C 8.863281 -19.503906 8.097656 -18.835938 7.015625 -17.953125 C 5.941406 -17.078125 5.097656 -16.421875 4.484375 -15.984375 Z M 1.875 -15.984375 "/></g></g></g><g fill="#000000" fill-opacity="1"><g transform="translate(316.003188, 244.692928)"><g><path d="M 11.203125 0 L 10.453125 -1.953125 L 10.34375 -1.953125 C 9.6875 -1.117188 9.003906 -0.539062 8.296875 -0.21875 C 7.597656 0.09375 6.6875 0.25 5.5625 0.25 C 4.175781 0.25 3.085938 -0.140625 2.296875 -0.921875 C 1.503906 -1.710938 1.109375 -2.835938 1.109375 -4.296875 C 1.109375 -5.828125 1.640625 -6.957031 2.703125 -7.6875 C 3.773438 -8.414062 5.390625 -8.816406 7.546875 -8.890625 L 10.046875 -8.96875 L 10.046875 -9.59375 C 10.046875 -11.0625 9.300781 -11.796875 7.8125 -11.796875 C 6.65625 -11.796875 5.300781 -11.445312 3.75 -10.75 L 2.453125 -13.40625 C 4.109375 -14.269531 5.945312 -14.703125 7.96875 -14.703125 C 9.894531 -14.703125 11.375 -14.28125 12.40625 -13.4375 C 13.4375 -12.59375 13.953125 -11.3125 13.953125 -9.59375 L 13.953125 0 Z M 10.046875 -6.671875 L 8.53125 -6.625 C 7.382812 -6.59375 6.53125 -6.382812 5.96875 -6 C 5.414062 -5.625 5.140625 -5.050781 5.140625 -4.28125 C 5.140625 -3.164062 5.773438 -2.609375 7.046875 -2.609375 C 7.960938 -2.609375 8.691406 -2.867188 9.234375 -3.390625 C 9.773438 -3.921875 10.046875 -4.617188 10.046875 -5.484375 Z M 10.046875 -6.671875 "/></g></g></g></svg>